<svg width="472" height="472" viewBox="0 0 472 472" fill="none" xmlns="http://www.w3.org/2000/svg">
<path d="M236 0C105.728 0 0 105.728 0 236C0 366.272 105.728 472 236 472C366.272 472 472 366.272 472 236C472 105.728 366.272 0 236 0ZM236 94.4C281.548 94.4 318.6 131.452 318.6 177C318.6 222.548 281.548 259.6 236 259.6C190.452 259.6 153.4 222.548 153.4 177C153.4 131.452 190.452 94.4 236 94.4ZM236 424.8C188.092 424.8 131.452 405.448 91.096 356.832C130.98 325.68 181.248 306.8 236 306.8C290.752 306.8 341.02 325.68 380.904 356.832C340.548 405.448 283.908 424.8 236 424.8Z" fill="#1D3461"/>
</svg>
