<svg width="64" height="64" viewBox="0 0 64 64" fill="none" xmlns="http://www.w3.org/2000/svg">
<rect x="0.5" y="0.5" width="63" height="63" stroke="white"/>
<path fill-rule="evenodd" clip-rule="evenodd" d="M32.0004 49.4545C41.6403 49.4545 49.455 41.6398 49.455 32C49.455 22.3601 41.6403 14.5454 32.0004 14.5454C22.3606 14.5454 14.5459 22.3601 14.5459 32C14.5459 41.6398 22.3606 49.4545 32.0004 49.4545ZM32.0004 43.6363C38.4269 43.6363 43.6368 38.4264 43.6368 32C43.6368 25.5734 38.4269 20.3636 32.0004 20.3636C25.5739 20.3636 20.3641 25.5734 20.3641 32C20.3641 38.4264 25.5739 43.6363 32.0004 43.6363Z" fill="white"/>
<path d="M49.455 11.6365C47.8483 11.6365 46.5459 12.9389 46.5459 14.5456C46.5459 16.1522 47.8483 17.4547 49.455 17.4547C51.0617 17.4547 52.3641 16.1522 52.3641 14.5456C52.3641 12.9389 51.0617 11.6365 49.455 11.6365Z" fill="white"/>
<path fill-rule="evenodd" clip-rule="evenodd" d="M1.90243 9.53036C0 13.2641 0 18.1518 0 27.9273V36.0727C0 45.8481 0 50.736 1.90243 54.4695C3.57585 57.7539 6.24605 60.4241 9.53036 62.0975C13.2641 64 18.1518 64 27.9273 64H36.0727C45.8481 64 50.736 64 54.4695 62.0975C57.7539 60.4241 60.4241 57.7539 62.0975 54.4695C64 50.736 64 45.8481 64 36.0727V27.9273C64 18.1518 64 13.2641 62.0975 9.53036C60.4241 6.24605 57.7539 3.57585 54.4695 1.90243C50.736 0 45.8481 0 36.0727 0H27.9273C18.1518 0 13.2641 0 9.53036 1.90243C6.24605 3.57585 3.57585 6.24605 1.90243 9.53036ZM36.0727 5.81818H27.9273C22.9435 5.81818 19.5556 5.82272 16.937 6.03665C14.3862 6.24506 13.0817 6.62281 12.1718 7.08646C9.98223 8.2021 8.2021 9.98223 7.08646 12.1718C6.62281 13.0817 6.24506 14.3862 6.03665 16.937C5.82272 19.5556 5.81818 22.9435 5.81818 27.9273V36.0727C5.81818 41.0566 5.82272 44.4442 6.03665 47.063C6.24506 49.614 6.62281 50.9184 7.08646 51.8284C8.2021 54.0177 9.98223 55.7978 12.1718 56.9135C13.0817 57.3772 14.3862 57.7551 16.937 57.9633C19.5556 58.1772 22.9435 58.1818 27.9273 58.1818H36.0727C41.0566 58.1818 44.4442 58.1772 47.063 57.9633C49.614 57.7551 50.9184 57.3772 51.8284 56.9135C54.0177 55.7978 55.7978 54.0177 56.9135 51.8284C57.3772 50.9184 57.7551 49.614 57.9633 47.063C58.1772 44.4442 58.1818 41.0566 58.1818 36.0727V27.9273C58.1818 22.9435 58.1772 19.5556 57.9633 16.937C57.7551 14.3862 57.3772 13.0817 56.9135 12.1718C55.7978 9.98223 54.0177 8.2021 51.8284 7.08646C50.9184 6.62281 49.614 6.24506 47.063 6.03665C44.4442 5.82272 41.0566 5.81818 36.0727 5.81818Z" fill="white"/>
</svg>
