<svg width="32" height="32" viewBox="0 0 32 32" fill="none" xmlns="http://www.w3.org/2000/svg">
<path d="M17.12 21.28L21.28 17.12C21.5733 16.8267 21.72 16.4533 21.72 16C21.72 15.5467 21.5733 15.1733 21.28 14.88L17.08 10.68C16.7867 10.3867 16.4203 10.2464 15.9808 10.2592C15.5403 10.2731 15.1733 10.4267 14.88 10.72C14.5867 11.0133 14.44 11.3867 14.44 11.84C14.44 12.2933 14.5867 12.6667 14.88 12.96L16.32 14.4H11.16C10.7067 14.4 10.3333 14.5531 10.04 14.8592C9.74667 15.1664 9.6 15.5467 9.6 16C9.6 16.4533 9.7536 16.8331 10.0608 17.1392C10.3669 17.4464 10.7467 17.6 11.2 17.6H16.32L14.84 19.08C14.5467 19.3733 14.4064 19.7403 14.4192 20.1808C14.4331 20.6203 14.5867 20.9867 14.88 21.28C15.1733 21.5733 15.5467 21.72 16 21.72C16.4533 21.72 16.8267 21.5733 17.12 21.28ZM16 32C13.7867 32 11.7067 31.5797 9.76 30.7392C7.81333 29.8997 6.12 28.76 4.68 27.32C3.24 25.88 2.10027 24.1867 1.2608 22.24C0.420267 20.2933 0 18.2133 0 16C0 13.7867 0.420267 11.7067 1.2608 9.76C2.10027 7.81333 3.24 6.12 4.68 4.68C6.12 3.24 7.81333 2.09973 9.76 1.2592C11.7067 0.419733 13.7867 0 16 0C18.2133 0 20.2933 0.419733 22.24 1.2592C24.1867 2.09973 25.88 3.24 27.32 4.68C28.76 6.12 29.8997 7.81333 30.7392 9.76C31.5797 11.7067 32 13.7867 32 16C32 18.2133 31.5797 20.2933 30.7392 22.24C29.8997 24.1867 28.76 25.88 27.32 27.32C25.88 28.76 24.1867 29.8997 22.24 30.7392C20.2933 31.5797 18.2133 32 16 32Z" fill="black"/>
</svg>
