<svg width="64" height="64" viewBox="0 0 64 64" fill="none" xmlns="http://www.w3.org/2000/svg">
<path d="M3.65293 0H60.3471C62.2689 0 64 1.73114 64 3.65293V60.3471C64 62.2689 62.2689 64 60.3471 64H3.65293C1.73114 64 0 62.2689 0 60.3471V3.65293C0 1.73114 1.73114 0 3.65293 0ZM45.4494 35.9358H54.2896L54.674 27.48H45.4494V21.2349C45.4494 18.8335 45.9291 17.4867 49.0039 17.4867H54.3849L54.5787 9.60584C54.5787 9.60584 52.1772 9.22149 48.718 9.22149C40.2621 9.22149 36.5139 14.5072 36.5139 20.1772V27.48H30.2689V35.9358H36.5139V59.3816H45.4494V35.9358Z" fill="white"/>
</svg>
